<svg width="353" height="550" viewBox="0 0 353 550" fill="none" xmlns="http://www.w3.org/2000/svg">
<path d="M3.26418 83.9024C1.30341 79.7071 -0.657544 81.1055 3.26418 71.3165C7.18589 61.5276 12.088 58.7308 12.088 58.7308L24.8335 41L42.4811 34.9576L73.8546 20.9734L95.4239 16.7781H111.111C111.111 16.7781 131.93 -0.365914 134.641 1.08745C137.352 2.54081 133.701 25.9727 143.465 27.9655C153.229 29.9582 318.656 34.3516 326.804 34.9576C334.951 35.5636 339.889 37.568 344.451 44.7465C349.014 51.9251 348.574 52.9839 350.334 58.7308C352.094 64.4776 352.974 72.3421 350.334 79.7071C347.694 87.0721 343.294 86.4445 338.569 92.2929C333.843 98.1413 332.295 98.997 329.745 109.074C327.195 119.151 326.804 131.449 326.804 131.449V153.823V172.003L323.863 223.744V268.494V290.869V327.228C323.863 337.494 326.804 354.44 326.804 371.977V384.563L329.745 422.32C329.745 422.32 331.415 427.245 329.745 436.305C328.075 445.364 317.776 444.191 315.039 436.305C312.301 428.418 313.817 428.5 312.097 411.133C310.378 393.766 315.039 332.473 315.039 332.473C315.039 332.473 312.097 268.494 312.097 257.307V212.557C312.097 201.37 315.039 185.987 315.039 176.198C315.039 166.409 316.456 132.889 315.039 124.457C313.621 116.024 312.097 114.668 308.176 109.074C304.254 103.48 301.938 102.763 296.411 102.082C290.884 101.401 287.859 106.528 284.646 109.074C281.433 111.619 279.743 114.668 279.743 120.261V139.839C279.743 139.839 279.743 149.835 276.802 149.628C273.861 149.422 272.9 149.628 269.939 144.034C266.979 138.441 269.939 133.516 269.939 124.457C269.939 115.397 272.02 119.081 266.018 114.668C260.015 110.254 261.901 115.943 256.213 120.261C250.526 124.58 251.781 127.24 250.331 135.644C248.88 144.048 250.331 158.019 250.331 158.019V185.987L248.262 218.246V237.074L249.141 257.158C249.141 257.158 254.853 281.636 249.141 285.275C243.43 288.914 244.302 288.54 240.527 285.275C236.751 282.01 240.527 263.916 240.527 263.916V229.338V204.167C240.527 204.167 239.902 191.258 240.527 181.792C241.151 172.326 244.742 152.973 243.468 144.034C242.194 135.096 239.902 129.751 235.624 124.457C231.347 119.163 225.383 123.474 220.918 124.457C216.453 125.439 212.184 131.006 208.173 135.644C204.161 140.282 199.425 149.207 198.368 153.823C197.312 158.44 194.146 174.94 193.466 181.792C192.787 188.644 193.466 216.691 193.466 223.744C193.466 230.798 194.987 239.132 193.466 247.518C191.946 255.903 191.946 270.966 191.946 270.966C191.946 270.966 190.311 280.254 186.226 277.87C182.141 275.486 182.392 260.148 182.706 258.414C183.021 256.679 184.642 240.526 184.642 240.526C184.642 240.526 187.584 217.618 187.584 212.557C187.584 207.496 188.866 194.396 187.584 188.784C186.301 183.172 186.968 180.533 184.026 174.94C181.085 169.346 179.187 169.291 173.858 172.003C168.529 174.715 169.067 174.94 166.014 181.792C162.961 188.644 162.093 201.37 162.093 201.37C162.093 201.37 156.21 222.011 156.21 229.338V311.845V395.75V458.679C156.21 458.679 154.549 486.242 156.21 499.234C157.872 512.226 162.093 531.397 162.093 531.397C162.093 531.397 163.348 538.334 159.828 543.983C156.308 549.632 156.471 550.259 150.589 547.121C144.706 543.983 143.634 541.451 140.47 527.665C137.305 513.879 143.109 469.923 143.109 469.923L144.445 429.128V353.798V285.275V247.518V219.549C144.445 213.956 145.425 208.362 144.445 201.37C143.465 194.378 141.504 188.785 140.524 185.988L140.523 185.987C139.543 183.19 138.562 178.995 134.641 176.198C130.719 173.401 129.739 173.401 124.837 172.003C119.935 170.604 116.993 172.003 111.111 172.003C105.228 172.003 101.306 173.401 95.4239 176.198C89.5415 178.995 88.5609 178.995 84.6393 181.792C80.7177 184.589 73.8546 190.182 69.9329 198.573C66.0113 206.963 64.0503 212.557 62.0896 219.549C60.1288 226.541 56.207 247.518 56.207 247.518L54.2462 261.502V285.275L56.207 318.837V341.212V380.368V395.75V422.32C56.207 427.914 58.1679 444.695 58.1679 448.89C58.1678 453.086 59.1483 460.078 58.1679 464.273C57.1874 468.468 54.2461 472.664 51.3049 472.664C48.3637 472.664 48.3636 471.265 45.4224 467.07C42.4812 462.875 43.4615 458.679 42.4811 451.687C41.5007 444.695 41.5006 441.898 42.4811 436.305C43.4616 430.711 45.4224 422.32 45.4224 422.32C45.4224 422.32 46.4027 420.922 47.3832 411.133C48.3637 401.344 47.3832 395.75 47.3832 390.157V371.977C47.3832 363.587 45.4224 355.196 45.4224 346.806V327.228V311.845C45.4224 302.056 42.4811 285.275 42.4811 285.275C42.4811 285.275 40.5203 269.892 40.5203 261.502V240.526V204.167V176.198C40.5203 166.409 42.481 159.417 42.4811 153.823C42.4812 148.23 40.5203 132.847 38.5594 131.449C36.5986 130.05 33.6572 130.05 31.6964 131.449C29.7357 132.847 28.7551 135.644 26.7943 139.839C24.8335 144.034 24.8335 159.417 24.8335 163.612V176.198C24.8335 178.995 25.8138 184.589 24.8335 188.784C23.8531 192.979 20.9117 201.37 17.9705 198.573C15.0293 195.776 16.0096 197.174 15.0293 192.979C14.0489 188.784 14.0488 187.386 15.0293 181.792C16.0097 176.198 17.9705 174.8 17.9705 167.808V149.628V135.644C18.2973 129.118 17.9705 111.871 17.9705 109.074C17.9705 106.277 16.99 100.683 14.0488 97.8866C11.1075 95.0897 10.1271 95.0897 8.16629 92.2929L8.16519 92.2913C6.20514 89.4955 5.22457 88.0968 3.26418 83.9024Z" fill="black" stroke="black"/>
</svg>
