<svg width="375" height="410" viewBox="0 0 375 410" fill="none" xmlns="http://www.w3.org/2000/svg">
<path d="M3.40609 62.7229C1.32243 59.5994 -0.761435 60.6406 3.40609 53.3525C7.57361 46.0643 12.783 43.982 12.783 43.982L45.0811 26.2823L78.421 15.8707L101.342 12.7472H118.012C118.012 12.7472 140.136 -0.0169507 143.017 1.06511C145.898 2.14718 142.018 19.5928 152.394 21.0765C162.77 22.5601 338.566 25.8311 347.225 26.2823C355.883 26.7335 361.13 28.2258 365.978 33.5704C370.827 38.915 370.359 39.7034 372.229 43.982C374.1 48.2607 375.035 54.116 372.229 59.5994C369.424 65.0829 364.749 64.6156 359.727 68.9699C354.705 73.3242 353.06 73.9613 350.35 81.4638C347.64 88.9664 347.225 98.1224 347.225 98.1224V114.781V128.316L344.099 166.839V200.156V216.815V243.885C344.099 251.529 347.225 264.145 347.225 277.202V286.572L350.35 314.684C350.35 314.684 352.125 318.35 350.35 325.095C348.575 331.841 337.631 330.967 334.722 325.095C331.813 319.224 333.423 319.285 331.596 306.354C329.769 293.424 334.722 247.79 334.722 247.79C334.722 247.79 331.596 200.156 331.596 191.827V158.51C331.596 150.18 334.722 138.728 334.722 131.439C334.722 124.151 336.229 99.1945 334.722 92.9166C333.215 86.6386 331.596 85.6285 327.429 81.4638C323.261 77.2992 320.8 76.765 314.926 76.258C309.053 75.7511 305.838 79.5686 302.424 81.4638C299.01 83.359 297.215 85.6285 297.215 89.7931V104.369C297.215 104.369 297.215 111.811 294.089 111.657C290.963 111.504 289.942 111.657 286.796 107.493C283.65 103.328 286.796 99.6618 286.796 92.9166C286.796 86.1713 289.007 88.9143 282.628 85.6285C276.25 82.3426 278.253 86.5779 272.21 89.7931C266.166 93.0083 267.5 94.989 265.958 101.246C264.417 107.503 265.958 117.904 265.958 117.904V138.728L263.759 162.745V176.763L264.695 191.716C264.695 191.716 270.764 209.941 264.695 212.65C258.625 215.36 259.552 215.081 255.54 212.65C251.528 210.219 255.54 196.747 255.54 196.747V171.004V152.263C255.54 152.263 254.876 142.652 255.54 135.604C256.203 128.556 260.019 114.148 258.665 107.493C257.311 100.838 254.876 96.8581 250.33 92.9166C245.784 88.975 239.447 92.1853 234.702 92.9166C229.957 93.6479 225.421 97.7927 221.158 101.246C216.895 104.699 211.862 111.344 210.739 114.781C209.616 118.218 206.252 130.502 205.53 135.604C204.808 140.706 205.53 161.587 205.53 166.839C205.53 172.091 207.145 178.295 205.53 184.539C203.914 190.782 203.914 201.997 203.914 201.997C203.914 201.997 202.177 208.912 197.836 207.137C193.495 205.362 193.761 193.943 194.095 192.651C194.43 191.36 196.153 179.333 196.153 179.333C196.153 179.333 199.278 162.278 199.278 158.51C199.278 154.742 200.641 144.988 199.278 140.81C197.916 136.632 198.624 134.667 195.498 130.502C192.372 126.338 190.355 126.297 184.692 128.316C179.029 130.335 179.602 130.502 176.357 135.604C173.113 140.706 172.19 150.18 172.19 150.18C172.19 150.18 165.938 165.549 165.938 171.004V232.432V294.902V341.754C165.938 341.754 164.173 362.275 165.938 371.948C167.704 381.62 172.19 395.894 172.19 395.894C172.19 395.894 173.524 401.059 169.783 405.265C166.043 409.47 166.216 409.938 159.965 407.601C153.714 405.265 152.574 403.379 149.211 393.115C145.848 382.851 152.017 350.125 152.017 350.125L153.436 319.752V263.667V212.65V184.539V163.715C153.436 159.551 154.478 155.386 153.436 150.18C152.394 144.975 150.311 140.811 149.269 138.728L149.268 138.728C148.227 136.645 147.185 133.522 143.017 131.439C138.85 129.357 137.808 129.357 132.598 128.316C127.389 127.275 124.263 128.316 118.012 128.316C111.761 128.316 107.593 129.357 101.342 131.439C95.0911 133.522 94.0491 133.522 89.8816 135.604C85.7142 137.686 78.421 141.851 74.2535 148.098C70.0861 154.345 68.0022 158.51 65.9185 163.715C63.8348 168.921 59.6673 184.539 59.6673 184.539L57.5835 194.95V212.65L59.6673 237.638V254.296V283.449V294.902V314.684C59.6672 318.848 61.7511 331.342 61.751 334.466C61.751 337.589 62.793 342.795 61.751 345.919C60.7091 349.042 57.5835 352.166 54.4579 352.166C51.3324 352.166 51.3322 351.124 48.2067 348.001C45.0811 344.877 46.1229 341.754 45.0811 336.548C44.0392 331.342 44.0391 329.26 45.0811 325.095C46.123 320.931 48.2067 314.684 48.2067 314.684C48.2067 314.684 49.2485 313.643 50.2904 306.354C51.3324 299.066 50.2904 294.902 50.2904 290.737V277.202C50.2904 270.955 48.2067 264.708 48.2067 258.461V243.885V232.432C48.2067 225.144 45.0811 212.65 45.0811 212.65C45.0811 212.65 42.9973 201.197 42.9973 194.95V179.333V152.263V131.439C42.9973 124.151 45.081 118.946 45.0811 114.781C45.0811 110.616 42.9973 99.1635 40.9136 98.1224C38.8298 97.0812 35.7041 97.0812 33.6204 98.1224C31.5368 99.1635 30.4948 101.246 28.4111 104.369C26.3274 107.493 26.3273 118.946 26.3273 122.069V131.439C26.3273 133.522 27.3691 137.686 26.3273 140.81C25.2855 143.933 22.1598 150.18 19.0342 148.098C15.9086 146.016 16.9504 147.057 15.9086 143.933C14.8668 140.81 14.8666 139.769 15.9086 135.604C16.9505 131.439 19.0342 130.398 19.0342 125.193V111.657V101.246C19.3815 96.3871 19.0342 83.5461 19.0342 81.4638C19.0342 79.3815 17.9923 75.2169 14.8666 73.1345C11.741 71.0522 10.6991 71.0522 8.61546 68.9699L8.61426 68.9687C6.53138 66.8872 5.48935 65.8458 3.40609 62.7229Z" fill="black" stroke="black"/>
</svg>
